<mxfile host="app.diagrams.net" modified="2023-10-28T00:37:34.329Z" agent="Mozilla/5.0 (Windows NT 10.0; Win64; x64) AppleWebKit/537.36 (KHTML, like Gecko) Chrome/118.0.0.0 Safari/537.36" etag="qB982OzmObxuf_DmYjBM" version="22.0.8" type="device">
  <diagram name="Page-1" id="NcO8Foy-ptRmXESLxO9y">
    <mxGraphModel dx="1050" dy="542" grid="1" gridSize="10" guides="1" tooltips="1" connect="1" arrows="1" fold="1" page="1" pageScale="1" pageWidth="1376" pageHeight="1154" math="0" shadow="0">
      <root>
        <mxCell id="0" />
        <mxCell id="1" parent="0" />
        <mxCell id="7KTR47xMdzolWMkDB3RZ-75" style="edgeStyle=orthogonalEdgeStyle;rounded=0;orthogonalLoop=1;jettySize=auto;html=1;startArrow=classic;startFill=1;" parent="1" target="7KTR47xMdzolWMkDB3RZ-61" edge="1">
          <mxGeometry relative="1" as="geometry">
            <mxPoint x="578" y="145" as="sourcePoint" />
          </mxGeometry>
        </mxCell>
        <mxCell id="7KTR47xMdzolWMkDB3RZ-60" value="Felhasználók" style="text;html=1;align=center;verticalAlign=middle;resizable=0;points=[];autosize=1;strokeColor=none;fillColor=none;" parent="1" vertex="1">
          <mxGeometry x="643" y="130" width="90" height="30" as="geometry" />
        </mxCell>
        <mxCell id="7KTR47xMdzolWMkDB3RZ-61" value="&amp;nbsp; &amp;nbsp; &amp;nbsp; &amp;nbsp; &amp;nbsp; &amp;nbsp; Bejelentkezési felület" style="swimlane;whiteSpace=wrap;html=1;startSize=30;" parent="1" vertex="1">
          <mxGeometry x="320" y="90" width="170" height="110" as="geometry" />
        </mxCell>
        <mxCell id="7KTR47xMdzolWMkDB3RZ-62" value="1" style="rounded=0;whiteSpace=wrap;html=1;" parent="7KTR47xMdzolWMkDB3RZ-61" vertex="1">
          <mxGeometry width="40" height="30" as="geometry" />
        </mxCell>
        <mxCell id="7KTR47xMdzolWMkDB3RZ-63" value="Bejelentkezés" style="text;html=1;align=center;verticalAlign=middle;resizable=0;points=[];autosize=1;strokeColor=none;fillColor=none;" parent="7KTR47xMdzolWMkDB3RZ-61" vertex="1">
          <mxGeometry x="35" y="50" width="100" height="30" as="geometry" />
        </mxCell>
        <mxCell id="7KTR47xMdzolWMkDB3RZ-73" style="edgeStyle=orthogonalEdgeStyle;rounded=0;orthogonalLoop=1;jettySize=auto;html=1;" parent="1" target="7KTR47xMdzolWMkDB3RZ-61" edge="1">
          <mxGeometry relative="1" as="geometry">
            <mxPoint x="160" y="145" as="sourcePoint" />
          </mxGeometry>
        </mxCell>
        <mxCell id="7KTR47xMdzolWMkDB3RZ-74" value="felhasználónév, jelszó" style="text;html=1;align=center;verticalAlign=middle;resizable=0;points=[];autosize=1;strokeColor=none;fillColor=none;" parent="1" vertex="1">
          <mxGeometry x="160" y="118" width="140" height="30" as="geometry" />
        </mxCell>
        <mxCell id="7KTR47xMdzolWMkDB3RZ-78" value="" style="group" parent="1" vertex="1" connectable="0">
          <mxGeometry x="320" y="270" width="175" height="118" as="geometry" />
        </mxCell>
        <mxCell id="7KTR47xMdzolWMkDB3RZ-79" value="&amp;nbsp; &amp;nbsp;Nyugta felület" style="swimlane;whiteSpace=wrap;html=1;startSize=30;" parent="7KTR47xMdzolWMkDB3RZ-78" vertex="1">
          <mxGeometry width="170" height="110" as="geometry" />
        </mxCell>
        <mxCell id="7KTR47xMdzolWMkDB3RZ-80" value="2" style="rounded=0;whiteSpace=wrap;html=1;" parent="7KTR47xMdzolWMkDB3RZ-79" vertex="1">
          <mxGeometry width="40" height="30" as="geometry" />
        </mxCell>
        <mxCell id="7KTR47xMdzolWMkDB3RZ-81" value="" style="endArrow=none;html=1;rounded=0;" parent="7KTR47xMdzolWMkDB3RZ-79" edge="1">
          <mxGeometry width="50" height="50" relative="1" as="geometry">
            <mxPoint x="140" y="110" as="sourcePoint" />
            <mxPoint x="170" y="80" as="targetPoint" />
          </mxGeometry>
        </mxCell>
        <mxCell id="7KTR47xMdzolWMkDB3RZ-83" value="Nyugta létrehozás" style="text;html=1;align=center;verticalAlign=middle;resizable=0;points=[];autosize=1;strokeColor=none;fillColor=none;" parent="7KTR47xMdzolWMkDB3RZ-79" vertex="1">
          <mxGeometry x="25" y="50" width="120" height="30" as="geometry" />
        </mxCell>
        <mxCell id="7KTR47xMdzolWMkDB3RZ-82" value="*" style="text;html=1;align=center;verticalAlign=middle;resizable=0;points=[];autosize=1;strokeColor=none;fillColor=none;" parent="7KTR47xMdzolWMkDB3RZ-78" vertex="1">
          <mxGeometry x="145" y="88" width="30" height="30" as="geometry" />
        </mxCell>
        <mxCell id="7KTR47xMdzolWMkDB3RZ-85" value="" style="group" parent="1" vertex="1" connectable="0">
          <mxGeometry x="40" y="105" width="120" height="80" as="geometry" />
        </mxCell>
        <mxCell id="7KTR47xMdzolWMkDB3RZ-86" value="Felhasználó" style="ellipse;whiteSpace=wrap;html=1;container=1;" parent="7KTR47xMdzolWMkDB3RZ-85" vertex="1">
          <mxGeometry width="120" height="80" as="geometry" />
        </mxCell>
        <mxCell id="7KTR47xMdzolWMkDB3RZ-87" value="" style="endArrow=none;html=1;rounded=0;exitX=0;exitY=0.5;exitDx=0;exitDy=0;" parent="7KTR47xMdzolWMkDB3RZ-85" source="7KTR47xMdzolWMkDB3RZ-86" edge="1">
          <mxGeometry width="50" height="50" relative="1" as="geometry">
            <mxPoint x="10" y="50" as="sourcePoint" />
            <mxPoint x="60" as="targetPoint" />
          </mxGeometry>
        </mxCell>
        <mxCell id="7KTR47xMdzolWMkDB3RZ-88" value="" style="group" parent="1" vertex="1" connectable="0">
          <mxGeometry x="40" y="278" width="120" height="80" as="geometry" />
        </mxCell>
        <mxCell id="7KTR47xMdzolWMkDB3RZ-89" value="" style="group" parent="7KTR47xMdzolWMkDB3RZ-88" vertex="1" connectable="0">
          <mxGeometry width="120" height="80" as="geometry" />
        </mxCell>
        <mxCell id="7KTR47xMdzolWMkDB3RZ-90" value="Felhasználó" style="ellipse;whiteSpace=wrap;html=1;container=1;" parent="7KTR47xMdzolWMkDB3RZ-89" vertex="1">
          <mxGeometry y="7" width="120" height="80" as="geometry" />
        </mxCell>
        <mxCell id="7KTR47xMdzolWMkDB3RZ-91" value="" style="endArrow=none;html=1;rounded=0;exitX=0;exitY=0.5;exitDx=0;exitDy=0;" parent="7KTR47xMdzolWMkDB3RZ-89" source="7KTR47xMdzolWMkDB3RZ-90" edge="1">
          <mxGeometry width="50" height="50" relative="1" as="geometry">
            <mxPoint x="10" y="57" as="sourcePoint" />
            <mxPoint x="60" y="7" as="targetPoint" />
          </mxGeometry>
        </mxCell>
        <mxCell id="7KTR47xMdzolWMkDB3RZ-92" style="rounded=0;orthogonalLoop=1;jettySize=auto;html=1;exitX=0.994;exitY=0.328;exitDx=0;exitDy=0;exitPerimeter=0;" parent="1" source="7KTR47xMdzolWMkDB3RZ-90" edge="1">
          <mxGeometry relative="1" as="geometry">
            <mxPoint x="160" y="310" as="sourcePoint" />
            <mxPoint x="320" y="310" as="targetPoint" />
          </mxGeometry>
        </mxCell>
        <mxCell id="7KTR47xMdzolWMkDB3RZ-93" style="rounded=0;orthogonalLoop=1;jettySize=auto;html=1;entryX=0.93;entryY=0.735;entryDx=0;entryDy=0;entryPerimeter=0;" parent="1" target="7KTR47xMdzolWMkDB3RZ-90" edge="1">
          <mxGeometry relative="1" as="geometry">
            <mxPoint x="320" y="344" as="sourcePoint" />
            <mxPoint x="159.9999999999999" y="340" as="targetPoint" />
          </mxGeometry>
        </mxCell>
        <mxCell id="7KTR47xMdzolWMkDB3RZ-94" value="Termékek, résztvevők,&lt;br&gt;csoportok, kép" style="text;html=1;align=center;verticalAlign=middle;resizable=0;points=[];autosize=1;strokeColor=none;fillColor=none;" parent="1" vertex="1">
          <mxGeometry x="160" y="270" width="140" height="40" as="geometry" />
        </mxCell>
        <mxCell id="7KTR47xMdzolWMkDB3RZ-95" value="Fejenkénti végösszeg" style="text;html=1;align=center;verticalAlign=middle;resizable=0;points=[];autosize=1;strokeColor=none;fillColor=none;" parent="1" vertex="1">
          <mxGeometry x="170" y="318" width="140" height="30" as="geometry" />
        </mxCell>
        <mxCell id="7KTR47xMdzolWMkDB3RZ-96" value="" style="shape=partialRectangle;whiteSpace=wrap;html=1;bottom=1;right=1;left=1;top=0;fillColor=none;routingCenterX=-0.5;rotation=90;" parent="1" vertex="1">
          <mxGeometry x="656" y="165.5" width="30" height="182.5" as="geometry" />
        </mxCell>
        <mxCell id="7KTR47xMdzolWMkDB3RZ-97" value="D2" style="rounded=0;whiteSpace=wrap;html=1;container=1;" parent="1" vertex="1">
          <mxGeometry x="578" y="241.75" width="50" height="30" as="geometry">
            <mxRectangle x="610" y="396.25" width="50" height="30" as="alternateBounds" />
          </mxGeometry>
        </mxCell>
        <mxCell id="7KTR47xMdzolWMkDB3RZ-98" value="" style="endArrow=none;html=1;rounded=0;entryX=0.25;entryY=0;entryDx=0;entryDy=0;exitX=0.25;exitY=1;exitDx=0;exitDy=0;" parent="7KTR47xMdzolWMkDB3RZ-97" edge="1">
          <mxGeometry width="50" height="50" relative="1" as="geometry">
            <mxPoint x="10" y="30" as="sourcePoint" />
            <mxPoint x="10" as="targetPoint" />
          </mxGeometry>
        </mxCell>
        <mxCell id="7KTR47xMdzolWMkDB3RZ-108" value="Nyugták" style="text;html=1;align=center;verticalAlign=middle;resizable=0;points=[];autosize=1;strokeColor=none;fillColor=none;" parent="1" vertex="1">
          <mxGeometry x="640" y="241.75" width="70" height="30" as="geometry" />
        </mxCell>
        <mxCell id="7KTR47xMdzolWMkDB3RZ-109" value="" style="shape=partialRectangle;whiteSpace=wrap;html=1;bottom=1;right=1;left=1;top=0;fillColor=none;routingCenterX=-0.5;rotation=90;" parent="1" vertex="1">
          <mxGeometry x="656" y="220" width="30" height="182.5" as="geometry" />
        </mxCell>
        <mxCell id="7KTR47xMdzolWMkDB3RZ-110" value="D3" style="rounded=0;whiteSpace=wrap;html=1;container=1;" parent="1" vertex="1">
          <mxGeometry x="578" y="296.25" width="50" height="30" as="geometry">
            <mxRectangle x="610" y="396.25" width="50" height="30" as="alternateBounds" />
          </mxGeometry>
        </mxCell>
        <mxCell id="7KTR47xMdzolWMkDB3RZ-111" value="" style="endArrow=none;html=1;rounded=0;entryX=0.25;entryY=0;entryDx=0;entryDy=0;exitX=0.25;exitY=1;exitDx=0;exitDy=0;" parent="7KTR47xMdzolWMkDB3RZ-110" edge="1">
          <mxGeometry width="50" height="50" relative="1" as="geometry">
            <mxPoint x="10" y="30" as="sourcePoint" />
            <mxPoint x="10" as="targetPoint" />
          </mxGeometry>
        </mxCell>
        <mxCell id="7KTR47xMdzolWMkDB3RZ-112" value="Termékek" style="text;html=1;align=center;verticalAlign=middle;resizable=0;points=[];autosize=1;strokeColor=none;fillColor=none;" parent="1" vertex="1">
          <mxGeometry x="635" y="296.25" width="80" height="30" as="geometry" />
        </mxCell>
        <mxCell id="7KTR47xMdzolWMkDB3RZ-113" value="" style="shape=partialRectangle;whiteSpace=wrap;html=1;bottom=1;right=1;left=1;top=0;fillColor=none;routingCenterX=-0.5;rotation=90;" parent="1" vertex="1">
          <mxGeometry x="656" y="270" width="30" height="182.5" as="geometry" />
        </mxCell>
        <mxCell id="7KTR47xMdzolWMkDB3RZ-114" value="D4" style="rounded=0;whiteSpace=wrap;html=1;container=1;" parent="1" vertex="1">
          <mxGeometry x="578" y="346.25" width="50" height="30" as="geometry">
            <mxRectangle x="610" y="396.25" width="50" height="30" as="alternateBounds" />
          </mxGeometry>
        </mxCell>
        <mxCell id="7KTR47xMdzolWMkDB3RZ-115" value="" style="endArrow=none;html=1;rounded=0;entryX=0.25;entryY=0;entryDx=0;entryDy=0;exitX=0.25;exitY=1;exitDx=0;exitDy=0;" parent="7KTR47xMdzolWMkDB3RZ-114" edge="1">
          <mxGeometry width="50" height="50" relative="1" as="geometry">
            <mxPoint x="10" y="30" as="sourcePoint" />
            <mxPoint x="10" as="targetPoint" />
          </mxGeometry>
        </mxCell>
        <mxCell id="7KTR47xMdzolWMkDB3RZ-116" value="Résztvevők" style="text;html=1;align=center;verticalAlign=middle;resizable=0;points=[];autosize=1;strokeColor=none;fillColor=none;" parent="1" vertex="1">
          <mxGeometry x="630" y="346.25" width="90" height="30" as="geometry" />
        </mxCell>
        <mxCell id="7KTR47xMdzolWMkDB3RZ-117" value="" style="shape=partialRectangle;whiteSpace=wrap;html=1;bottom=1;right=1;left=1;top=0;fillColor=none;routingCenterX=-0.5;rotation=90;" parent="1" vertex="1">
          <mxGeometry x="656" y="326.25" width="30" height="182.5" as="geometry" />
        </mxCell>
        <mxCell id="7KTR47xMdzolWMkDB3RZ-118" value="D5" style="rounded=0;whiteSpace=wrap;html=1;container=1;" parent="1" vertex="1">
          <mxGeometry x="578" y="402.5" width="50" height="30" as="geometry">
            <mxRectangle x="610" y="396.25" width="50" height="30" as="alternateBounds" />
          </mxGeometry>
        </mxCell>
        <mxCell id="7KTR47xMdzolWMkDB3RZ-119" value="" style="endArrow=none;html=1;rounded=0;entryX=0.25;entryY=0;entryDx=0;entryDy=0;exitX=0.25;exitY=1;exitDx=0;exitDy=0;" parent="7KTR47xMdzolWMkDB3RZ-118" edge="1">
          <mxGeometry width="50" height="50" relative="1" as="geometry">
            <mxPoint x="10" y="30" as="sourcePoint" />
            <mxPoint x="10" as="targetPoint" />
          </mxGeometry>
        </mxCell>
        <mxCell id="7KTR47xMdzolWMkDB3RZ-120" value="Csoportok" style="text;html=1;align=center;verticalAlign=middle;resizable=0;points=[];autosize=1;strokeColor=none;fillColor=none;" parent="1" vertex="1">
          <mxGeometry x="635" y="402.5" width="80" height="30" as="geometry" />
        </mxCell>
        <mxCell id="7KTR47xMdzolWMkDB3RZ-121" style="edgeStyle=orthogonalEdgeStyle;rounded=0;orthogonalLoop=1;jettySize=auto;html=1;startArrow=classic;startFill=1;" parent="1" source="7KTR47xMdzolWMkDB3RZ-118" target="7KTR47xMdzolWMkDB3RZ-79" edge="1">
          <mxGeometry relative="1" as="geometry">
            <mxPoint x="588" y="155" as="sourcePoint" />
            <mxPoint x="500" y="155" as="targetPoint" />
            <Array as="points">
              <mxPoint x="450" y="417" />
            </Array>
          </mxGeometry>
        </mxCell>
        <mxCell id="7KTR47xMdzolWMkDB3RZ-122" style="edgeStyle=orthogonalEdgeStyle;rounded=0;orthogonalLoop=1;jettySize=auto;html=1;startArrow=classic;startFill=1;" parent="1" edge="1">
          <mxGeometry relative="1" as="geometry">
            <mxPoint x="578" y="360.96000000000004" as="sourcePoint" />
            <mxPoint x="490" y="360.96000000000004" as="targetPoint" />
          </mxGeometry>
        </mxCell>
        <mxCell id="7KTR47xMdzolWMkDB3RZ-123" style="rounded=0;orthogonalLoop=1;jettySize=auto;html=1;startArrow=classic;startFill=1;" parent="1" source="7KTR47xMdzolWMkDB3RZ-110" edge="1">
          <mxGeometry relative="1" as="geometry">
            <mxPoint x="608" y="175" as="sourcePoint" />
            <mxPoint x="490" y="311" as="targetPoint" />
          </mxGeometry>
        </mxCell>
        <mxCell id="7KTR47xMdzolWMkDB3RZ-124" style="edgeStyle=orthogonalEdgeStyle;rounded=0;orthogonalLoop=1;jettySize=auto;html=1;startArrow=classic;startFill=1;" parent="1" source="7KTR47xMdzolWMkDB3RZ-97" target="7KTR47xMdzolWMkDB3RZ-79" edge="1">
          <mxGeometry relative="1" as="geometry">
            <mxPoint x="618" y="185" as="sourcePoint" />
            <mxPoint x="530" y="185" as="targetPoint" />
            <Array as="points">
              <mxPoint x="534" y="257" />
              <mxPoint x="534" y="280" />
            </Array>
          </mxGeometry>
        </mxCell>
        <mxCell id="7KTR47xMdzolWMkDB3RZ-134" style="edgeStyle=orthogonalEdgeStyle;rounded=0;orthogonalLoop=1;jettySize=auto;html=1;" parent="1" source="7KTR47xMdzolWMkDB3RZ-133" target="7KTR47xMdzolWMkDB3RZ-79" edge="1">
          <mxGeometry relative="1" as="geometry">
            <Array as="points">
              <mxPoint x="250" y="420" />
              <mxPoint x="250" y="380" />
            </Array>
          </mxGeometry>
        </mxCell>
        <mxCell id="7KTR47xMdzolWMkDB3RZ-138" value="Termékek" style="edgeLabel;html=1;align=center;verticalAlign=middle;resizable=0;points=[];" parent="7KTR47xMdzolWMkDB3RZ-134" vertex="1" connectable="0">
          <mxGeometry x="-0.342" relative="1" as="geometry">
            <mxPoint x="-12" y="-10" as="offset" />
          </mxGeometry>
        </mxCell>
        <mxCell id="7KTR47xMdzolWMkDB3RZ-133" value="Látogató" style="ellipse;whiteSpace=wrap;html=1;" parent="1" vertex="1">
          <mxGeometry x="40" y="410" width="120" height="80" as="geometry" />
        </mxCell>
        <mxCell id="7KTR47xMdzolWMkDB3RZ-135" style="edgeStyle=orthogonalEdgeStyle;rounded=0;orthogonalLoop=1;jettySize=auto;html=1;" parent="1" source="7KTR47xMdzolWMkDB3RZ-79" target="7KTR47xMdzolWMkDB3RZ-133" edge="1">
          <mxGeometry relative="1" as="geometry">
            <Array as="points">
              <mxPoint x="405" y="450" />
            </Array>
          </mxGeometry>
        </mxCell>
        <mxCell id="7KTR47xMdzolWMkDB3RZ-137" value="Végösszeg" style="edgeLabel;html=1;align=center;verticalAlign=middle;resizable=0;points=[];" parent="7KTR47xMdzolWMkDB3RZ-135" vertex="1" connectable="0">
          <mxGeometry x="-0.0984" y="-3" relative="1" as="geometry">
            <mxPoint x="-13" y="-14" as="offset" />
          </mxGeometry>
        </mxCell>
        <mxCell id="7KTR47xMdzolWMkDB3RZ-139" value="" style="group" parent="1" vertex="1" connectable="0">
          <mxGeometry x="40" y="560" width="120" height="80" as="geometry" />
        </mxCell>
        <mxCell id="7KTR47xMdzolWMkDB3RZ-140" value="" style="group" parent="7KTR47xMdzolWMkDB3RZ-139" vertex="1" connectable="0">
          <mxGeometry y="-8" width="120" height="80" as="geometry" />
        </mxCell>
        <mxCell id="7KTR47xMdzolWMkDB3RZ-141" value="Felhasználó" style="ellipse;whiteSpace=wrap;html=1;container=1;" parent="7KTR47xMdzolWMkDB3RZ-140" vertex="1">
          <mxGeometry width="120" height="80" as="geometry" />
        </mxCell>
        <mxCell id="7KTR47xMdzolWMkDB3RZ-142" value="" style="endArrow=none;html=1;rounded=0;exitX=0;exitY=0.5;exitDx=0;exitDy=0;" parent="7KTR47xMdzolWMkDB3RZ-140" source="7KTR47xMdzolWMkDB3RZ-141" edge="1">
          <mxGeometry width="50" height="50" relative="1" as="geometry">
            <mxPoint x="10" y="50" as="sourcePoint" />
            <mxPoint x="60" as="targetPoint" />
          </mxGeometry>
        </mxCell>
        <mxCell id="7KTR47xMdzolWMkDB3RZ-143" value="&amp;nbsp; &amp;nbsp; &amp;nbsp; Résztvevő felület" style="swimlane;whiteSpace=wrap;html=1;startSize=30;" parent="1" vertex="1">
          <mxGeometry x="320" y="537" width="170" height="110" as="geometry" />
        </mxCell>
        <mxCell id="7KTR47xMdzolWMkDB3RZ-144" value="3" style="rounded=0;whiteSpace=wrap;html=1;" parent="7KTR47xMdzolWMkDB3RZ-143" vertex="1">
          <mxGeometry width="40" height="30" as="geometry" />
        </mxCell>
        <mxCell id="7KTR47xMdzolWMkDB3RZ-145" value="Résztvevő létrehozás" style="text;html=1;align=center;verticalAlign=middle;resizable=0;points=[];autosize=1;strokeColor=none;fillColor=none;" parent="7KTR47xMdzolWMkDB3RZ-143" vertex="1">
          <mxGeometry x="17.5" y="48" width="140" height="30" as="geometry" />
        </mxCell>
        <mxCell id="7KTR47xMdzolWMkDB3RZ-146" value="" style="shape=partialRectangle;whiteSpace=wrap;html=1;bottom=1;right=1;left=1;top=0;fillColor=none;routingCenterX=-0.5;rotation=90;" parent="1" vertex="1">
          <mxGeometry x="656" y="508.75" width="30" height="182.5" as="geometry" />
        </mxCell>
        <mxCell id="7KTR47xMdzolWMkDB3RZ-147" value="D4" style="rounded=0;whiteSpace=wrap;html=1;container=1;" parent="1" vertex="1">
          <mxGeometry x="578" y="585" width="50" height="30" as="geometry">
            <mxRectangle x="610" y="396.25" width="50" height="30" as="alternateBounds" />
          </mxGeometry>
        </mxCell>
        <mxCell id="7KTR47xMdzolWMkDB3RZ-148" value="" style="endArrow=none;html=1;rounded=0;entryX=0.25;entryY=0;entryDx=0;entryDy=0;exitX=0.25;exitY=1;exitDx=0;exitDy=0;" parent="7KTR47xMdzolWMkDB3RZ-147" edge="1">
          <mxGeometry width="50" height="50" relative="1" as="geometry">
            <mxPoint x="10" y="30" as="sourcePoint" />
            <mxPoint x="10" as="targetPoint" />
          </mxGeometry>
        </mxCell>
        <mxCell id="7KTR47xMdzolWMkDB3RZ-149" value="Résztvevők" style="text;html=1;align=center;verticalAlign=middle;resizable=0;points=[];autosize=1;strokeColor=none;fillColor=none;" parent="1" vertex="1">
          <mxGeometry x="630" y="585" width="90" height="30" as="geometry" />
        </mxCell>
        <mxCell id="7KTR47xMdzolWMkDB3RZ-150" style="edgeStyle=orthogonalEdgeStyle;rounded=0;orthogonalLoop=1;jettySize=auto;html=1;startArrow=classic;startFill=1;" parent="1" edge="1">
          <mxGeometry relative="1" as="geometry">
            <mxPoint x="578" y="599.71" as="sourcePoint" />
            <mxPoint x="490" y="599.71" as="targetPoint" />
          </mxGeometry>
        </mxCell>
        <mxCell id="7KTR47xMdzolWMkDB3RZ-152" style="rounded=0;orthogonalLoop=1;jettySize=auto;html=1;" parent="1" source="7KTR47xMdzolWMkDB3RZ-141" target="7KTR47xMdzolWMkDB3RZ-143" edge="1">
          <mxGeometry relative="1" as="geometry">
            <mxPoint x="159" y="585" as="sourcePoint" />
            <mxPoint x="320" y="584" as="targetPoint" />
          </mxGeometry>
        </mxCell>
        <mxCell id="7KTR47xMdzolWMkDB3RZ-156" value="Név" style="edgeLabel;html=1;align=center;verticalAlign=middle;resizable=0;points=[];" parent="7KTR47xMdzolWMkDB3RZ-152" vertex="1" connectable="0">
          <mxGeometry x="-0.1634" y="2" relative="1" as="geometry">
            <mxPoint x="3" y="-10" as="offset" />
          </mxGeometry>
        </mxCell>
        <mxCell id="7KTR47xMdzolWMkDB3RZ-185" value="" style="group" parent="1" vertex="1" connectable="0">
          <mxGeometry x="40" y="721.25" width="120" height="80" as="geometry" />
        </mxCell>
        <mxCell id="7KTR47xMdzolWMkDB3RZ-186" value="" style="group" parent="7KTR47xMdzolWMkDB3RZ-185" vertex="1" connectable="0">
          <mxGeometry y="-8" width="120" height="80" as="geometry" />
        </mxCell>
        <mxCell id="7KTR47xMdzolWMkDB3RZ-187" value="Felhasználó" style="ellipse;whiteSpace=wrap;html=1;container=1;" parent="7KTR47xMdzolWMkDB3RZ-186" vertex="1">
          <mxGeometry width="120" height="80" as="geometry" />
        </mxCell>
        <mxCell id="7KTR47xMdzolWMkDB3RZ-188" value="" style="endArrow=none;html=1;rounded=0;exitX=0;exitY=0.5;exitDx=0;exitDy=0;" parent="7KTR47xMdzolWMkDB3RZ-186" source="7KTR47xMdzolWMkDB3RZ-187" edge="1">
          <mxGeometry width="50" height="50" relative="1" as="geometry">
            <mxPoint x="10" y="50" as="sourcePoint" />
            <mxPoint x="60" as="targetPoint" />
          </mxGeometry>
        </mxCell>
        <mxCell id="7KTR47xMdzolWMkDB3RZ-189" value="&amp;nbsp; Csoport felület" style="swimlane;whiteSpace=wrap;html=1;startSize=30;" parent="1" vertex="1">
          <mxGeometry x="320" y="698.25" width="170" height="110" as="geometry" />
        </mxCell>
        <mxCell id="7KTR47xMdzolWMkDB3RZ-190" value="4" style="rounded=0;whiteSpace=wrap;html=1;" parent="7KTR47xMdzolWMkDB3RZ-189" vertex="1">
          <mxGeometry width="40" height="30" as="geometry" />
        </mxCell>
        <mxCell id="7KTR47xMdzolWMkDB3RZ-191" value="Csoport létrehozás" style="text;html=1;align=center;verticalAlign=middle;resizable=0;points=[];autosize=1;strokeColor=none;fillColor=none;" parent="7KTR47xMdzolWMkDB3RZ-189" vertex="1">
          <mxGeometry x="27.5" y="48" width="120" height="30" as="geometry" />
        </mxCell>
        <mxCell id="7KTR47xMdzolWMkDB3RZ-192" value="" style="shape=partialRectangle;whiteSpace=wrap;html=1;bottom=1;right=1;left=1;top=0;fillColor=none;routingCenterX=-0.5;rotation=90;" parent="1" vertex="1">
          <mxGeometry x="656" y="690" width="30" height="182.5" as="geometry" />
        </mxCell>
        <mxCell id="7KTR47xMdzolWMkDB3RZ-193" value="D4" style="rounded=0;whiteSpace=wrap;html=1;container=1;" parent="1" vertex="1">
          <mxGeometry x="578" y="766.25" width="50" height="30" as="geometry">
            <mxRectangle x="610" y="396.25" width="50" height="30" as="alternateBounds" />
          </mxGeometry>
        </mxCell>
        <mxCell id="7KTR47xMdzolWMkDB3RZ-194" value="" style="endArrow=none;html=1;rounded=0;entryX=0.25;entryY=0;entryDx=0;entryDy=0;exitX=0.25;exitY=1;exitDx=0;exitDy=0;" parent="7KTR47xMdzolWMkDB3RZ-193" edge="1">
          <mxGeometry width="50" height="50" relative="1" as="geometry">
            <mxPoint x="10" y="30" as="sourcePoint" />
            <mxPoint x="10" as="targetPoint" />
          </mxGeometry>
        </mxCell>
        <mxCell id="7KTR47xMdzolWMkDB3RZ-195" value="Résztvevők" style="text;html=1;align=center;verticalAlign=middle;resizable=0;points=[];autosize=1;strokeColor=none;fillColor=none;" parent="1" vertex="1">
          <mxGeometry x="630" y="766.25" width="90" height="30" as="geometry" />
        </mxCell>
        <mxCell id="7KTR47xMdzolWMkDB3RZ-196" style="edgeStyle=orthogonalEdgeStyle;rounded=0;orthogonalLoop=1;jettySize=auto;html=1;startArrow=classic;startFill=1;" parent="1" edge="1">
          <mxGeometry relative="1" as="geometry">
            <mxPoint x="578" y="780.9100000000001" as="sourcePoint" />
            <mxPoint x="490" y="780.9100000000001" as="targetPoint" />
          </mxGeometry>
        </mxCell>
        <mxCell id="7KTR47xMdzolWMkDB3RZ-197" style="rounded=0;orthogonalLoop=1;jettySize=auto;html=1;" parent="1" source="7KTR47xMdzolWMkDB3RZ-187" target="7KTR47xMdzolWMkDB3RZ-189" edge="1">
          <mxGeometry relative="1" as="geometry">
            <mxPoint x="159" y="746.25" as="sourcePoint" />
            <mxPoint x="320" y="745.25" as="targetPoint" />
          </mxGeometry>
        </mxCell>
        <mxCell id="7KTR47xMdzolWMkDB3RZ-198" value="Név, tagok" style="edgeLabel;html=1;align=center;verticalAlign=middle;resizable=0;points=[];" parent="7KTR47xMdzolWMkDB3RZ-197" vertex="1" connectable="0">
          <mxGeometry x="-0.1634" y="2" relative="1" as="geometry">
            <mxPoint x="3" y="-10" as="offset" />
          </mxGeometry>
        </mxCell>
        <mxCell id="7KTR47xMdzolWMkDB3RZ-199" value="" style="shape=partialRectangle;whiteSpace=wrap;html=1;bottom=1;right=1;left=1;top=0;fillColor=none;routingCenterX=-0.5;rotation=90;" parent="1" vertex="1">
          <mxGeometry x="656" y="640" width="30" height="182.5" as="geometry" />
        </mxCell>
        <mxCell id="7KTR47xMdzolWMkDB3RZ-200" value="D5" style="rounded=0;whiteSpace=wrap;html=1;container=1;" parent="1" vertex="1">
          <mxGeometry x="578" y="716.25" width="50" height="30" as="geometry">
            <mxRectangle x="610" y="396.25" width="50" height="30" as="alternateBounds" />
          </mxGeometry>
        </mxCell>
        <mxCell id="7KTR47xMdzolWMkDB3RZ-201" value="" style="endArrow=none;html=1;rounded=0;entryX=0.25;entryY=0;entryDx=0;entryDy=0;exitX=0.25;exitY=1;exitDx=0;exitDy=0;" parent="7KTR47xMdzolWMkDB3RZ-200" edge="1">
          <mxGeometry width="50" height="50" relative="1" as="geometry">
            <mxPoint x="10" y="30" as="sourcePoint" />
            <mxPoint x="10" as="targetPoint" />
          </mxGeometry>
        </mxCell>
        <mxCell id="7KTR47xMdzolWMkDB3RZ-202" value="Csoportok" style="text;html=1;align=center;verticalAlign=middle;resizable=0;points=[];autosize=1;strokeColor=none;fillColor=none;" parent="1" vertex="1">
          <mxGeometry x="635" y="716.25" width="80" height="30" as="geometry" />
        </mxCell>
        <mxCell id="7KTR47xMdzolWMkDB3RZ-203" style="edgeStyle=orthogonalEdgeStyle;rounded=0;orthogonalLoop=1;jettySize=auto;html=1;startArrow=classic;startFill=1;" parent="1" edge="1">
          <mxGeometry relative="1" as="geometry">
            <mxPoint x="578" y="730.9100000000001" as="sourcePoint" />
            <mxPoint x="490" y="730.9100000000001" as="targetPoint" />
          </mxGeometry>
        </mxCell>
        <mxCell id="7KTR47xMdzolWMkDB3RZ-204" value="" style="shape=partialRectangle;whiteSpace=wrap;html=1;bottom=1;right=1;left=1;top=0;fillColor=none;routingCenterX=-0.5;rotation=90;" parent="1" vertex="1">
          <mxGeometry x="656" y="53.75" width="30" height="182.5" as="geometry" />
        </mxCell>
        <mxCell id="7KTR47xMdzolWMkDB3RZ-205" value="D1" style="rounded=0;whiteSpace=wrap;html=1;container=1;" parent="1" vertex="1">
          <mxGeometry x="578" y="130" width="50" height="30" as="geometry">
            <mxRectangle x="610" y="396.25" width="50" height="30" as="alternateBounds" />
          </mxGeometry>
        </mxCell>
        <mxCell id="7KTR47xMdzolWMkDB3RZ-206" value="" style="endArrow=none;html=1;rounded=0;entryX=0.25;entryY=0;entryDx=0;entryDy=0;exitX=0.25;exitY=1;exitDx=0;exitDy=0;" parent="7KTR47xMdzolWMkDB3RZ-205" edge="1">
          <mxGeometry width="50" height="50" relative="1" as="geometry">
            <mxPoint x="10" y="30" as="sourcePoint" />
            <mxPoint x="10" as="targetPoint" />
          </mxGeometry>
        </mxCell>
        <mxCell id="7KTR47xMdzolWMkDB3RZ-207" style="edgeStyle=orthogonalEdgeStyle;rounded=0;orthogonalLoop=1;jettySize=auto;html=1;startArrow=classic;startFill=1;" parent="1" target="7KTR47xMdzolWMkDB3RZ-209" edge="1">
          <mxGeometry relative="1" as="geometry">
            <mxPoint x="578" y="913.75" as="sourcePoint" />
          </mxGeometry>
        </mxCell>
        <mxCell id="7KTR47xMdzolWMkDB3RZ-208" value="Felhasználók" style="text;html=1;align=center;verticalAlign=middle;resizable=0;points=[];autosize=1;strokeColor=none;fillColor=none;" parent="1" vertex="1">
          <mxGeometry x="643" y="898.75" width="90" height="30" as="geometry" />
        </mxCell>
        <mxCell id="7KTR47xMdzolWMkDB3RZ-209" value="&amp;nbsp; &amp;nbsp; &amp;nbsp; &amp;nbsp; Felhasználó felület" style="swimlane;whiteSpace=wrap;html=1;startSize=30;" parent="1" vertex="1">
          <mxGeometry x="320" y="858.75" width="170" height="110" as="geometry" />
        </mxCell>
        <mxCell id="7KTR47xMdzolWMkDB3RZ-210" value="1" style="rounded=0;whiteSpace=wrap;html=1;" parent="7KTR47xMdzolWMkDB3RZ-209" vertex="1">
          <mxGeometry width="40" height="30" as="geometry" />
        </mxCell>
        <mxCell id="7KTR47xMdzolWMkDB3RZ-211" value="Felhasználó kezelés" style="text;html=1;align=center;verticalAlign=middle;resizable=0;points=[];autosize=1;strokeColor=none;fillColor=none;" parent="7KTR47xMdzolWMkDB3RZ-209" vertex="1">
          <mxGeometry x="20" y="50" width="130" height="30" as="geometry" />
        </mxCell>
        <mxCell id="7KTR47xMdzolWMkDB3RZ-212" style="edgeStyle=orthogonalEdgeStyle;rounded=0;orthogonalLoop=1;jettySize=auto;html=1;" parent="1" target="7KTR47xMdzolWMkDB3RZ-209" edge="1">
          <mxGeometry relative="1" as="geometry">
            <mxPoint x="160" y="913.75" as="sourcePoint" />
          </mxGeometry>
        </mxCell>
        <mxCell id="7KTR47xMdzolWMkDB3RZ-213" value="listázás" style="text;html=1;align=center;verticalAlign=middle;resizable=0;points=[];autosize=1;strokeColor=none;fillColor=none;" parent="1" vertex="1">
          <mxGeometry x="200" y="886.75" width="60" height="30" as="geometry" />
        </mxCell>
        <mxCell id="7KTR47xMdzolWMkDB3RZ-214" value="" style="group" parent="1" vertex="1" connectable="0">
          <mxGeometry x="40" y="873.75" width="120" height="80" as="geometry" />
        </mxCell>
        <mxCell id="7KTR47xMdzolWMkDB3RZ-215" value="Adminisztrátor" style="ellipse;whiteSpace=wrap;html=1;container=1;" parent="7KTR47xMdzolWMkDB3RZ-214" vertex="1">
          <mxGeometry width="120" height="80" as="geometry" />
        </mxCell>
        <mxCell id="7KTR47xMdzolWMkDB3RZ-217" value="" style="shape=partialRectangle;whiteSpace=wrap;html=1;bottom=1;right=1;left=1;top=0;fillColor=none;routingCenterX=-0.5;rotation=90;" parent="1" vertex="1">
          <mxGeometry x="656" y="822.5" width="30" height="182.5" as="geometry" />
        </mxCell>
        <mxCell id="7KTR47xMdzolWMkDB3RZ-218" value="D1" style="rounded=0;whiteSpace=wrap;html=1;container=1;" parent="1" vertex="1">
          <mxGeometry x="578" y="898.75" width="50" height="30" as="geometry">
            <mxRectangle x="610" y="396.25" width="50" height="30" as="alternateBounds" />
          </mxGeometry>
        </mxCell>
        <mxCell id="7KTR47xMdzolWMkDB3RZ-219" value="" style="endArrow=none;html=1;rounded=0;entryX=0.25;entryY=0;entryDx=0;entryDy=0;exitX=0.25;exitY=1;exitDx=0;exitDy=0;" parent="7KTR47xMdzolWMkDB3RZ-218" edge="1">
          <mxGeometry width="50" height="50" relative="1" as="geometry">
            <mxPoint x="10" y="30" as="sourcePoint" />
            <mxPoint x="10" as="targetPoint" />
          </mxGeometry>
        </mxCell>
      </root>
    </mxGraphModel>
  </diagram>
</mxfile>
